<svg xmlns="http://www.w3.org/2000/svg" viewBox="0 0 24 24" width="24" height="24" color="#000000" fill="none">
    <defs />
    <path fill="#141B34" d="M18.5,19.75 L18.25,19.75 L18.25,20 C18.25,21.519 17.019,22.75 15.5,22.75 L5.5,22.75 C3.981,22.75 2.75,21.519 2.75,20 L2.75,7 C2.75,5.481 3.981,4.25 5.5,4.25 L5.75,4.25 L5.75,4 C5.75,2.481 6.981,1.25 8.5,1.25 L15.5,1.25 C15.699,1.25 15.89,1.329 16.03,1.47 L21.03,6.47 C21.171,6.61 21.25,6.801 21.25,7 L21.25,17 C21.25,18.519 20.019,19.75 18.5,19.75 Z M7.25,4 L7.25,17 C7.25,17.69 7.81,18.25 8.5,18.25 L18.5,18.25 C19.19,18.25 19.75,17.69 19.75,17 L19.75,7.75 L16.5,7.75 C15.533,7.75 14.75,6.966 14.75,6 L14.75,2.75 L8.5,2.75 C7.81,2.75 7.25,3.31 7.25,4 Z M8.5,19.75 C6.981,19.75 5.75,18.519 5.75,17 L5.75,5.75 L5.5,5.75 C4.81,5.75 4.25,6.31 4.25,7 L4.25,20 C4.25,20.69 4.81,21.25 5.5,21.25 L15.5,21.25 C16.191,21.25 16.75,20.69 16.75,20 L16.75,19.75 Z M10,14.25 L17,14.25 C17.414,14.25 17.75,14.586 17.75,15 C17.75,15.414 17.414,15.75 17,15.75 L10,15.75 C9.586,15.75 9.25,15.414 9.25,15 C9.25,14.586 9.586,14.25 10,14.25 Z M10,10.25 L14,10.25 C14.414,10.25 14.75,10.586 14.75,11 C14.75,11.414 14.414,11.75 14,11.75 L10,11.75 C9.586,11.75 9.25,11.414 9.25,11 C9.25,10.586 9.586,10.25 10,10.25 Z M18.689,6.25 L16.25,3.811 L16.25,6 C16.25,6.138 16.362,6.25 16.5,6.25 Z" />
</svg>