<svg xmlns="http://www.w3.org/2000/svg" viewBox="0 0 24 24" width="24" height="24" color="#000000" fill="none">
    <defs />
    <path fill="currentColor" d="M10.742,12 C10.742,11.31 11.302,10.75 11.992,10.75 L12.001,10.75 C12.691,10.75 13.251,11.31 13.251,12 C13.251,12.69 12.691,13.25 12.001,13.25 L11.992,13.25 C11.302,13.25 10.742,12.69 10.742,12 Z M16.742,12 C16.742,11.31 17.302,10.75 17.992,10.75 L18.001,10.75 C18.691,10.75 19.251,11.31 19.251,12 C19.251,12.69 18.691,13.25 18.001,13.25 L17.992,13.25 C17.302,13.25 16.742,12.69 16.742,12 Z M6,10.75 L6.009,10.75 C6.699,10.75 7.259,11.31 7.259,12 C7.259,12.69 6.699,13.25 6.009,13.25 L6,13.25 C5.31,13.25 4.75,12.69 4.75,12 C4.75,11.31 5.31,10.75 6,10.75 Z" />
</svg>