<svg xmlns="http://www.w3.org/2000/svg" viewBox="0 0 24 24" width="24" height="24" color="#000000" fill="none">
    <defs />
    <path fill="#141B34" d="M3,1.25 L8.995,1.25 C9.962,1.25 10.745,2.033 10.745,3 L10.745,7 C10.745,7.966 9.962,8.75 8.995,8.75 L6.75,8.75 L6.75,10.75 L12,10.75 C12.414,10.75 12.75,11.086 12.75,11.5 C12.75,11.914 12.414,12.25 12,12.25 L6.75,12.25 L6.75,17.5 C6.75,18.19 7.31,18.75 8,18.75 L12.25,18.75 L12.25,18 C12.25,17.034 13.033,16.25 14,16.25 L17.997,16.25 C18.963,16.25 19.747,17.034 19.747,18 L19.747,21 C19.747,21.966 18.963,22.75 17.997,22.75 L14,22.75 C13.033,22.75 12.25,21.966 12.25,21 L12.25,20.25 L8,20.25 C6.481,20.25 5.25,19.019 5.25,17.5 L5.25,8.75 L3,8.75 C2.033,8.75 1.25,7.966 1.25,7 L1.25,3 C1.25,2.033 2.033,1.25 3,1.25 Z M20.343,4.47 L22.53,6.657 C22.823,6.95 22.823,7.425 22.53,7.718 L17.718,12.53 C17.577,12.671 17.386,12.75 17.188,12.75 L15,12.75 C14.586,12.75 14.25,12.414 14.25,12 L14.25,9.812 C14.25,9.614 14.329,9.423 14.47,9.282 L19.282,4.47 C19.575,4.177 20.05,4.177 20.343,4.47 Z M8.995,7.25 C9.133,7.25 9.245,7.138 9.245,7 L9.245,3 C9.245,2.862 9.133,2.75 8.995,2.75 L3,2.75 C2.862,2.75 2.75,2.862 2.75,3 L2.75,7 C2.75,7.138 2.862,7.25 3,7.25 L8.995,7.25 Z M13.75,18 L13.75,21 C13.75,21.138 13.862,21.25 14,21.25 L17.997,21.25 C18.135,21.25 18.247,21.138 18.247,21 L18.247,18 C18.247,17.862 18.135,17.75 17.997,17.75 L14,17.75 C13.862,17.75 13.75,17.862 13.75,18 Z M15.75,11.25 L16.877,11.25 L20.939,7.188 L19.812,6.061 L15.75,10.123 Z" />
</svg>