<svg xmlns="http://www.w3.org/2000/svg" viewBox="0 0 24 24" width="24" height="24" color="#000000" fill="none">
    <defs />
    <path fill="currentColor" d="M9.38,2.12 C10.555,4.121 13.447,4.121 14.621,2.121 C14.829,1.767 15.282,1.646 15.638,1.848 L19.102,3.815 C19.277,3.914 19.404,4.079 19.456,4.273 C19.508,4.467 19.48,4.674 19.379,4.847 C18.24,6.786 19.695,9.283 22,9.283 C22.414,9.283 22.75,9.619 22.75,10.033 L22.75,13.967 C22.75,14.381 22.414,14.717 22,14.717 C19.695,14.717 18.242,17.214 19.38,19.153 C19.482,19.327 19.51,19.533 19.458,19.727 C19.406,19.921 19.279,20.086 19.104,20.185 L15.64,22.152 C15.283,22.355 14.83,22.233 14.623,21.88 C13.448,19.878 10.554,19.878 9.379,21.88 C9.171,22.233 8.718,22.355 8.362,22.152 L4.898,20.185 C4.723,20.086 4.595,19.921 4.543,19.727 C4.492,19.533 4.52,19.327 4.621,19.154 C5.76,17.214 4.305,14.717 2,14.717 C1.586,14.717 1.25,14.381 1.25,13.967 L1.25,10.033 C1.25,9.619 1.586,9.283 2,9.283 C4.306,9.283 5.761,6.786 4.623,4.847 C4.521,4.673 4.493,4.467 4.545,4.273 C4.597,4.079 4.725,3.914 4.899,3.815 L8.363,1.848 C8.72,1.645 9.173,1.767 9.38,2.12 Z M12,15.5 C13.933,15.5 15.5,13.933 15.5,12 C15.5,10.067 13.933,8.5 12,8.5 C10.067,8.5 8.5,10.067 8.5,12 C8.5,13.933 10.067,15.5 12,15.5 Z" />
</svg>